<?xml version="1.0" encoding="UTF-8" ?>
<!DOCTYPE svg PUBLIC "-//W3C//DTD SVG 1.1//EN" "http://www.w3.org/Graphics/SVG/1.1/DTD/svg11.dtd">
<svg width="607pt" height="578pt" viewBox="0 0 607 578" version="1.1" xmlns="http://www.w3.org/2000/svg">
<g id="#1a2f93ff">
<path fill="#1a2f93" opacity="1.00" d=" M 321.41 9.25 C 327.18 8.40 332.22 11.88 337.90 12.02 C 342.72 13.18 347.60 10.52 352.38 12.21 C 359.61 14.57 367.15 15.77 374.69 16.75 C 379.04 17.40 383.02 19.44 387.31 20.30 C 396.16 21.30 405.14 22.73 413.15 26.85 C 416.04 28.52 419.28 29.28 422.52 29.96 C 425.74 30.57 427.58 33.69 430.59 34.76 C 434.51 36.32 438.70 37.44 442.10 40.07 C 446.57 43.52 452.28 44.87 456.58 48.57 C 461.78 53.00 467.69 56.44 473.75 59.54 C 478.24 62.36 484.05 63.29 487.42 67.68 C 491.01 71.34 494.86 74.80 497.81 79.04 C 500.12 82.51 503.71 84.74 506.96 87.23 C 509.41 89.09 510.79 91.94 512.88 94.14 C 520.64 101.40 527.81 109.36 533.81 118.14 C 539.95 125.89 547.91 132.05 554.02 139.83 C 558.62 149.35 565.88 157.25 571.40 166.24 C 573.97 171.70 576.01 177.45 579.31 182.54 C 580.91 184.67 580.31 187.44 580.59 189.92 C 580.84 194.49 583.26 198.47 585.02 202.57 C 585.99 207.62 586.08 212.80 586.53 217.92 C 588.80 222.77 590.87 227.71 592.77 232.72 C 595.27 240.15 593.78 248.13 595.76 255.65 C 596.38 261.10 597.76 266.50 597.53 272.02 C 597.33 276.37 598.57 280.61 598.44 284.96 C 598.46 292.64 598.68 300.36 597.59 307.99 C 597.83 315.08 596.51 322.04 595.57 329.02 C 596.06 334.10 591.98 337.94 591.40 342.81 C 590.80 347.69 588.25 351.99 587.22 356.76 C 586.19 359.95 586.18 363.50 584.34 366.39 C 582.06 370.65 579.71 375.07 579.19 379.96 C 578.79 383.24 576.41 385.79 575.71 388.99 C 574.93 392.31 572.53 394.98 571.89 398.34 C 571.64 400.01 571.79 401.73 571.49 403.40 C 569.14 408.54 564.51 412.06 561.71 416.91 C 557.66 424.02 552.08 430.09 547.74 437.02 C 545.53 440.68 541.64 442.87 539.32 446.43 C 536.28 451.27 531.54 454.69 528.26 459.36 C 525.41 463.55 520.17 465.19 517.38 469.41 C 514.16 473.87 509.19 476.50 505.50 480.48 C 498.94 487.30 492.10 493.83 485.42 500.51 C 480.07 507.73 470.30 508.92 463.93 514.91 C 462.06 516.69 460.33 518.71 457.94 519.82 C 451.89 522.83 447.07 527.76 441.08 530.87 C 437.42 532.76 434.14 535.28 430.55 537.25 C 425.23 538.61 419.73 539.71 415.13 542.90 C 409.31 545.67 403.59 549.11 397.09 549.96 C 393.51 550.42 390.46 552.47 387.08 553.59 C 380.34 555.61 374.33 559.56 367.36 560.92 C 358.34 564.81 348.48 565.62 338.93 567.37 C 332.51 566.94 326.22 568.22 319.91 569.16 C 309.81 569.63 299.63 568.83 289.57 569.96 C 286.05 571.08 282.60 569.25 279.06 569.45 C 267.94 569.94 256.99 567.45 245.97 566.45 C 238.37 566.74 230.88 565.53 223.35 564.85 C 213.70 563.91 204.90 559.21 195.22 558.41 C 191.41 557.34 187.43 557.95 183.59 557.38 C 181.85 555.74 180.77 553.51 178.89 552.03 C 175.50 550.30 171.87 548.87 168.06 548.42 C 161.43 547.75 157.08 541.97 151.02 539.85 C 147.53 538.66 144.08 537.24 141.31 534.73 C 136.30 530.49 129.45 529.72 124.24 525.86 C 121.78 524.23 119.01 523.14 116.61 521.43 C 111.40 517.19 105.76 513.51 100.74 509.03 C 94.84 506.72 88.34 504.98 83.97 500.03 C 79.32 494.84 72.66 492.18 67.89 487.16 C 65.80 485.17 63.05 483.80 61.54 481.26 C 60.20 478.54 59.94 475.32 58.03 472.87 C 52.24 465.23 48.16 456.41 41.93 449.08 C 39.79 446.72 38.55 443.73 37.93 440.64 C 37.41 437.23 35.00 434.49 34.51 431.07 C 33.95 426.00 29.86 422.50 27.79 418.07 C 25.38 414.77 25.60 410.55 24.36 406.82 C 23.36 403.71 22.79 400.51 22.14 397.33 C 21.44 393.92 19.42 390.87 19.37 387.33 C 18.97 381.59 18.46 375.59 14.89 370.84 C 14.14 364.77 13.46 358.65 11.83 352.74 C 10.68 348.76 12.25 344.56 11.08 340.59 C 10.12 337.13 9.32 333.59 9.34 329.98 C 9.24 327.10 10.65 324.48 11.13 321.70 C 12.02 315.83 11.22 309.89 11.57 304.00 C 11.86 298.66 11.24 293.33 11.24 287.99 C 11.47 276.66 15.29 265.88 17.64 254.91 C 18.63 250.73 18.31 246.41 18.93 242.19 C 20.21 237.56 21.39 232.82 23.73 228.58 C 26.31 223.27 27.53 217.41 30.23 212.14 C 33.05 206.60 34.91 200.64 37.81 195.14 C 39.74 191.23 40.61 186.85 43.01 183.16 C 44.82 180.29 45.15 176.81 46.67 173.81 C 48.91 169.52 52.02 165.76 54.48 161.60 C 57.81 156.22 63.67 152.30 64.55 145.64 C 68.18 141.27 73.39 138.46 76.74 133.81 C 80.46 129.46 81.57 123.56 85.03 119.07 C 90.39 114.90 95.84 110.70 100.13 105.37 C 103.93 99.46 110.33 95.86 114.15 89.97 C 116.69 85.86 121.74 84.45 124.61 80.63 C 130.92 74.53 136.17 67.16 143.83 62.63 C 146.78 60.58 149.58 58.31 152.69 56.49 C 157.38 53.61 160.08 48.17 165.41 46.24 C 171.09 43.93 175.55 39.50 181.03 36.82 C 185.96 34.05 191.45 32.52 196.93 31.27 C 204.30 29.37 211.50 26.84 218.94 25.18 C 224.78 23.81 229.90 20.21 235.91 19.49 C 240.67 18.72 245.05 16.33 249.95 16.26 C 255.83 14.93 262.19 16.85 267.75 14.08 C 271.81 11.72 276.61 12.73 281.03 11.76 C 285.52 10.85 289.98 13.35 294.41 11.93 C 298.53 10.50 302.74 12.37 306.86 12.20 C 311.53 10.42 316.32 8.87 321.41 9.25 M 229.52 200.23 C 218.65 201.74 207.76 205.38 199.18 212.42 C 195.17 216.07 190.33 209.79 185.89 212.08 C 182.87 213.53 180.70 216.25 177.77 217.86 C 175.61 219.14 173.15 219.80 170.93 220.97 C 169.30 222.36 168.09 224.24 166.20 225.33 C 161.12 228.32 156.96 232.58 152.99 236.88 C 148.11 243.66 142.99 250.23 138.06 256.96 C 135.62 259.74 136.46 263.63 136.51 267.00 C 136.95 273.93 136.19 281.65 140.44 287.62 C 143.54 290.55 148.06 291.05 151.62 293.27 C 155.44 295.30 158.50 298.60 162.62 300.08 C 166.18 301.53 169.76 302.93 173.25 304.55 C 179.51 307.68 184.44 312.76 190.09 316.79 C 193.82 319.52 197.05 323.22 201.66 324.47 C 205.50 325.49 207.72 328.96 210.37 331.60 C 214.36 335.91 220.10 338.89 222.24 344.67 C 224.53 350.50 227.28 356.14 230.21 361.68 C 231.73 364.31 231.74 367.50 231.13 370.40 C 229.42 373.23 226.36 374.89 224.45 377.57 C 221.93 381.33 217.43 383.33 213.01 383.57 C 208.41 383.76 204.55 386.71 200.12 387.52 C 195.70 386.72 191.71 383.93 187.08 384.32 C 183.07 384.19 179.05 385.01 175.05 384.44 C 172.01 383.16 169.56 380.72 166.37 379.72 C 161.36 377.53 155.75 378.13 150.59 376.60 C 146.45 375.65 142.34 374.30 138.05 374.47 C 135.24 374.54 131.92 373.55 129.68 375.81 C 125.04 379.84 118.82 382.31 115.69 387.87 C 114.59 389.92 112.96 391.98 113.32 394.45 C 113.65 399.01 113.91 403.58 113.62 408.15 C 113.17 411.98 115.42 415.43 117.72 418.27 C 120.90 420.39 124.63 421.46 127.98 423.27 C 131.50 425.36 135.71 424.29 139.53 425.15 C 143.28 425.93 146.51 428.16 150.15 429.28 C 154.82 429.52 159.40 428.07 164.02 427.52 C 166.67 427.73 169.28 428.90 171.97 428.18 C 175.94 427.26 180.01 427.72 184.01 428.18 C 189.27 426.99 194.67 427.52 200.00 427.15 C 205.68 425.90 211.18 423.98 216.67 422.12 C 220.40 420.77 224.81 422.70 228.19 420.32 C 231.73 418.00 234.84 414.43 239.32 414.09 C 242.52 413.44 246.24 414.07 248.88 411.76 C 254.74 406.51 261.06 401.20 264.04 393.70 C 265.22 389.10 266.27 384.41 268.46 380.16 C 269.48 378.00 271.18 375.89 270.70 373.36 C 270.21 369.25 270.30 365.11 270.54 360.99 C 270.84 355.67 269.98 350.40 269.23 345.15 C 268.56 343.00 267.04 341.26 266.18 339.20 C 264.56 335.08 265.00 330.36 262.78 326.45 C 260.53 321.89 256.73 318.29 254.75 313.58 C 253.41 310.87 252.85 307.37 249.78 306.02 C 244.89 303.28 240.34 299.55 237.75 294.49 C 235.59 291.19 233.76 287.68 231.56 284.42 C 227.13 280.82 222.57 277.35 218.04 273.87 C 214.77 271.10 209.69 272.19 206.67 269.13 C 204.54 265.42 203.48 261.24 202.43 257.13 C 201.75 254.42 200.10 251.90 200.38 249.01 C 199.64 243.81 204.91 240.42 204.58 235.25 C 207.19 235.57 209.86 235.25 212.44 235.70 C 214.71 237.38 216.32 239.91 218.98 241.08 C 222.81 242.83 226.89 244.01 231.06 244.62 C 235.60 245.19 239.44 248.28 244.06 248.44 C 247.32 248.65 250.52 249.32 253.68 250.13 C 257.64 250.97 260.06 255.08 264.20 255.46 C 267.43 255.82 270.71 255.76 273.96 255.63 C 275.45 255.66 276.91 255.06 277.89 253.92 C 281.30 249.77 282.87 244.40 286.54 240.43 C 288.53 237.90 291.15 235.58 291.64 232.22 C 292.39 228.54 293.69 224.87 293.42 221.07 C 292.84 218.84 290.83 217.34 289.52 215.52 C 286.63 212.27 284.43 207.96 280.24 206.22 C 276.59 205.87 272.86 206.94 269.23 206.10 C 265.17 204.92 263.48 200.52 259.95 198.59 C 256.75 198.08 253.49 198.86 250.29 198.38 C 243.39 196.47 236.26 198.58 229.52 200.23 M 430.30 199.82 C 427.88 200.46 425.45 201.07 423.05 201.77 C 419.08 203.05 416.08 206.11 412.49 208.07 C 406.64 209.64 400.64 211.08 395.42 214.28 C 392.48 216.07 388.62 216.63 386.56 219.62 C 383.64 223.63 380.64 227.63 376.97 230.99 C 374.41 233.15 374.06 236.68 372.23 239.33 C 370.81 241.39 369.54 243.55 368.47 245.82 C 366.53 249.93 362.09 252.29 360.52 256.62 C 359.01 262.01 356.38 267.04 355.94 272.68 C 352.37 278.71 352.56 285.85 350.09 292.26 C 348.17 297.89 347.71 303.88 346.04 309.57 C 342.21 321.87 346.58 335.06 342.83 347.36 C 342.26 350.16 342.09 353.07 342.46 355.91 C 342.74 358.34 344.60 360.14 345.41 362.38 C 346.06 365.06 346.47 367.79 347.06 370.49 C 348.00 374.40 346.78 378.47 347.80 382.38 C 348.93 386.89 349.57 391.70 352.15 395.69 C 353.77 398.37 356.74 399.78 358.70 402.16 C 359.95 403.74 360.87 405.55 362.16 407.10 C 364.28 407.47 366.46 407.30 368.57 407.80 C 372.19 409.87 375.02 413.17 378.87 414.88 C 382.06 416.16 385.53 416.46 388.92 416.70 C 392.26 417.31 395.51 418.59 398.97 418.40 C 404.89 418.14 410.76 420.49 416.65 419.06 C 421.30 418.04 426.12 418.20 430.81 418.77 C 437.79 420.01 444.95 419.73 451.96 418.84 C 457.99 418.69 464.02 418.67 470.04 418.41 C 474.98 418.51 479.51 416.27 484.13 414.83 C 489.84 413.24 495.33 409.60 497.96 404.14 C 499.40 401.32 502.49 398.77 501.37 395.27 C 500.08 389.28 500.15 382.63 496.60 377.40 C 494.50 374.25 490.35 376.06 487.30 375.08 C 482.95 373.47 478.84 370.62 474.06 370.58 C 469.94 371.46 466.13 373.40 462.27 375.05 C 456.88 377.70 450.64 377.45 445.12 379.71 C 438.99 381.86 432.93 378.57 426.96 377.60 C 421.76 377.76 416.65 376.27 412.14 373.74 C 410.39 372.25 409.28 370.12 407.39 368.78 C 405.10 367.14 402.51 365.60 401.23 362.98 C 398.40 355.96 400.11 348.33 399.40 341.00 C 399.80 332.07 401.15 323.19 401.60 314.26 C 402.95 308.54 405.59 303.03 405.45 297.03 C 405.14 291.01 408.09 285.63 410.44 280.31 C 412.91 275.70 416.91 272.19 420.93 268.97 C 423.51 266.89 424.55 262.63 428.29 262.33 C 432.71 261.78 437.13 260.48 441.57 260.43 C 444.73 262.39 448.27 263.24 452.00 262.82 C 457.33 262.30 462.47 263.78 467.55 265.17 C 470.72 265.98 473.57 268.18 476.99 267.72 C 483.61 266.16 487.35 274.03 493.78 273.80 C 496.76 273.73 498.08 270.63 499.76 268.66 C 503.24 264.73 504.41 259.19 504.40 254.09 C 502.06 249.72 501.48 244.84 501.42 239.95 C 499.62 234.51 495.37 230.17 490.46 227.34 C 487.27 225.57 485.03 222.56 481.96 220.67 C 479.47 220.41 476.94 220.76 474.49 220.27 C 471.49 217.93 468.38 215.76 465.19 213.71 C 459.86 209.29 453.49 205.63 446.44 205.23 C 441.77 202.00 436.31 198.21 430.30 199.82 Z" />
</g>
</svg>
